<svg width="21" height="21" viewBox="0 0 21 21" fill="none" xmlns="http://www.w3.org/2000/svg">
<path fill-rule="evenodd" clip-rule="evenodd" d="M17.3613 10.1628C17.3613 6.18709 14.1384 2.96415 10.1627 2.96415C6.18698 2.96415 2.96404 6.18709 2.96404 10.1628C2.96404 14.1385 6.18698 17.3614 10.1627 17.3614C14.1384 17.3614 17.3613 14.1385 17.3613 10.1628ZM9.52751 5.9283C9.52751 5.5775 9.81189 5.29312 10.1627 5.29312C10.5135 5.29312 10.7979 5.5775 10.7979 5.9283V10.1628C10.7979 10.3818 10.685 10.5854 10.4993 10.7014L7.95863 12.2894C7.66115 12.4753 7.26928 12.3848 7.08336 12.0874C6.89744 11.7899 6.98787 11.398 7.28535 11.2121L9.52751 9.81075V5.9283Z" fill="white"/>
</svg>
